# AST/ASF file generated using VICON BodyLanguage
# -----------------------------------------------
:version 1.10
:name VICON
:units
  mass 1.0
  length 0.45
  angle deg
:documentation
   .ast/.asf automatically generated from VICON data using
   VICON BodyBuilder and BodyLanguage model FoxedUp or BRILLIANT.MOD
:root
   order TX TY TZ RX RY RZ
   axis XYZ
   position 0 0 0  
   orientation 0 0 0 
:bonedata
  begin
     id 1 
     name lhipjoint
     direction 0.588788 -0.725889 0.355548 
     length 2.37778 
     axis 0 0 0  XYZ
  end
  begin
     id 2 
     name lfemur
     direction 0.34202 -0.939693 0  
     length 6.86393  
     axis 0 0 20  XYZ
    dof rx ry rz
    limits (-160.0 20.0)
           (-70.0 70.0)
           (-60.0 70.0)
  end
  begin
     id 3 
     name ltibia
     direction 0.34202 -0.939693 0   
     length 7.32851   
     axis 0 0 20   XYZ
    dof rx
    limits (-10.0 170.0)
  end
  begin
     id 4 
     name lfoot
     direction 0.0626533 -0.172138 0.983078   
     length 1.98929   
     axis -90 7.62852e-016 20   XYZ
    dof rx rz
    limits (-45.0 90.0)
           (-70.0 20.0)
  end
  begin
     id 5 
     name ltoes
     direction 1.53647e-011 -4.21734e-011 1   
     length 1.00479   
     axis -90 7.62852e-016 20   XYZ
    dof rx
    limits (-90.0 20.0)
  end
  begin
     id 6 
     name rhipjoint
     direction -0.59141 -0.724168 0.354705   
     length 2.38343  
     axis 0 0 0  XYZ 
  end
  begin
     id 7 
     name rfemur
     direction -0.34202 -0.939693 0   
     length 6.95589   
     axis 0 0 -20   XYZ
    dof rx ry rz
    limits (-160.0 20.0)
           (-70.0 70.0)
           (-70.0 60.0)
  end
  begin
     id 8 
     name rtibia
     direction -0.34202 -0.939693 0   
     length 7.32327   
     axis 0 0 -20   XYZ
    dof rx
    limits (-10.0 170.0)
 end
 begin
     id 9 
     name rfoot
     direction -0.0660461 -0.18146 0.981178   
     length 1.85272  
     axis -90 -7.62852e-016 -20   XYZ
    dof rx rz
    limits (-45.0 90.0)
           (-20.0 70.0)
  end
  begin
     id 10 
     name rtoes
     direction -1.53586e-011 -4.21988e-011 1   
     length 0.93746   
     axis -90 -7.62852e-016 -20   XYZ
    dof rx
    limits (-90.0 20.0)
  end
  begin
     id 11 
     name lowerback
     direction -0.0107982 0.991059 0.13299   
     length 1.98691   
     axis 0 0 0   XYZ
    dof rx ry rz
    limits (-20.0 45.0)
           (-30.0 30.0)
           (-30.0 30.0)
  end
  begin
     id 12 
     name upperback
     direction 0.0076296 0.999916 0.0104576   
     length 1.99501   
     axis 0 0 0   XYZ
    dof rx ry rz
    limits (-20.0 45.0)
           (-30.0 30.0)
           (-30.0 30.0)
  end
  begin
     id 13 
     name thorax
     direction 0.01176 0.998615 -0.0512909   
     length 2.03144   
     axis 0 0 0   XYZ
    dof rx ry rz
    limits (-20.0 45.0)
           (-30.0 30.0)
           (-30.0 30.0)
  end
  begin
     id 14 
     name lowerneck
     direction -0.0171909 0.999644 0.0204011   
     length 1.71818   
     axis 0 0 0   XYZ
    dof rx ry rz
    limits (-20.0 45.0)
           (-30.0 30.0)
           (-30.0 30.0)
  end
  begin
     id 15 
     name upperneck
     direction 0.0250902 0.997482 -0.0663316   
     length 1.66199   
     axis 0 0 0   XYZ
    dof rx ry rz
    limits (-20.0 45.0)
           (-30.0 30.0)
           (-30.0 30.0)
  end
  begin
     id 16
     name head
     direction 0.00881535 0.99956 -0.0283365  
     length 1.81545  
     axis 0 0 0   XYZ
    dof rx ry rz
    limits (-20.0 45.0)
           (-30.0 30.0)
           (-30.0 30.0)
  end
  begin
     id 17 
     name lclavicle
     direction 0.840411 0.486876 -0.238035  
     length 3.30409  
     axis 0 0 0   XYZ
    dof ry rz
    limits (-20.0 10.0)
           (0.0 20.0)
  end
  begin
     id 18 
     name lhumerus
     direction 1 -4.48977e-011 -5.16239e-027   
     length 4.62672   
     axis 180 -30 -90   XYZ
    dof rx ry rz
    limits (-60.0 90.0)
           (-90.0 90.0)
           (-90.0 90.0)
  end
  begin
     id 19
     name lradius
     direction 1 -4.48977e-011 -8.71171e-027   
     length 3.11018   
     axis 180 -30 -90   XYZ
    dof rx
    limits (-10.0 170.0)
  end
  begin
     id 20
     name lwrist
     direction 1 -4.48912e-011 -1.03764e-026   
     length 1.55509   
     axis 9.09556e-015 90 90   XYZ
    dof ry
    limits (-180.0 0.0)
 end
  begin
     id 21 
     name lhand
     direction 1 -4.49072e-011 -2.07528e-026   
     length 0.743834   
     axis 1.3242e-014 90 90   XYZ
    dof rx rz
    limits (-90.0 90.0)
           (-45.0 45.0)
  end
  begin
     id 22 
     name lfingers
     direction 1 -4.48909e-011 -4.15056e-026   
     length 0.599698   
     axis 2.64841e-014 90 90   XYZ
    dof rx
    limits (0.0 90.0)
  end
  begin
     id 23
     name lthumb
     direction 0.707107 -6.35013e-011 0.707107   
     length 0.86105   
     axis -90 45 2.85299e-015   XYZ
    dof rx rz
    limits (-45.0 45.0)
           (-45.0 45.0)
  end
  begin
     id 24 
     name rclavicle
     direction -0.835208 0.500237 -0.228452   
     length 3.2716  
     axis 0 0 0   XYZ 
    dof ry rz
    limits (-10.0 20.0)
           (-20.0 0.0)
  end
  begin
     id 25 
     name rhumerus
     direction -1 -4.48978e-011 -5.1953e-028  
     length 4.55919   
     axis 180 30 90   XYZ
    dof rx ry rz
    limits (-90.0 60.0)
           (-90.0 90.0)
           (-90.0 90.0)
  end
  begin
     id 26 
     name rradius
     direction -1 -4.48961e-011 -5.99546e-027   
     length 3.22748   
     axis 180 30 90   XYZ
    dof rx
    limits (-10.0 170.0)
  end
  begin
     id 27 
     name rwrist
     direction -1 -4.48986e-011 -1.03764e-026   
     length 1.61374   
     axis 9.09556e-015 -90 -90   XYZ
    dof ry
    limits (-180.0 0.0)
  end
  begin
     id 28
     name rhand
     direction -1 -4.4899e-011 -2.07528e-026   
     length 0.700882   
     axis 1.3242e-014 -90 -90   XYZ
    dof rx rz
    limits (-90.0 90.0)
           (-45.0 45.0)
  end
  begin
     id 29
     name rfingers
     direction -1 -4.48991e-011 -4.15056e-026   
     length 0.565069   
     axis 2.64841e-014 -90 -90   XYZ
    dof rx
    limits (0.0 90.0)
  end
  begin
     id 30
     name rthumb
     direction -0.707107 -6.34804e-011 0.707107   
     length 0.811329   
     axis -90 -45 -2.85299e-015   XYZ
    dof rx rz
    limits (-45.0 45.0)
           (-45.0 45.0)
  end
:hierarchy
  begin
    root lhipjoint rhipjoint lowerback
    lhipjoint lfemur
    lfemur ltibia
    ltibia lfoot
    lfoot ltoes
    rhipjoint rfemur
    rfemur rtibia
    rtibia rfoot
    rfoot rtoes
    lowerback upperback
    upperback thorax
    thorax lowerneck lclavicle rclavicle
    lowerneck upperneck
    upperneck head
    lclavicle lhumerus
    lhumerus lradius
    lradius lwrist
    lwrist lhand lthumb
    lhand lfingers
    rclavicle rhumerus
    rhumerus rradius
    rradius rwrist
    rwrist rhand rthumb
    rhand rfingers
  end

#!OML:ASF F:\VICON\USERDATA\INSTALL\SteveWalk\SteveWalk.ASF
:FULLY-SPECIFIED
:DEGREES
376
root 0.396578 16.0749 41.2109 16.526 -4.26664 3.90649
lowerback -15.1773 -0.116794 -6.56706
upperback -6.07556 0.814482 -1.60388
thorax 1.97814 0.469571 2.15491
lowerneck -4.01412 -0.698262 -0.866562
upperneck 8.44447 -0.908192 0.388529
head 3.43122 -0.462983 0.240013
rclavicle 1.76297e-014 -1.47101e-014
rhumerus -37.3322 -1.96235 -88.7885
rradius 41.2348
rwrist -17.2579
rhand -18.8847 -33.9896
rfingers 7.12502
rthumb 7.41641 -63.8396
lclavicle 1.76297e-014 -1.47101e-014
lhumerus -57.7897 33.9185 49.0315
lradius 12.2635
lwrist -36.8657
lhand -16.1298 -15.4384
lfingers 7.12502
lthumb 10.0749 14.3004
rfemur -33.1065 -3.23146 14.5415
rtibia 75.5671
rfoot 2.21724 3.76558
rtoes -6.76756
lfemur -34.9927 1.46995 -28.9876
ltibia 35.7285
lfoot -15.155 0.878897
ltoes -19.1334
377
root 0.424928 16.1192 41.4549 16.4322 -3.15224 3.08867
lowerback -15.8373 -0.268434 -5.23817
upperback -5.78091 0.479254 -1.35605
thorax 2.69035 0.267946 1.61931
lowerneck -4.02865 -0.735005 -1.03822
upperneck 8.75467 -0.953335 0.478431
head 3.54436 -0.487797 0.297369
rclavicle 5.41688e-015 -1.96797e-014
rhumerus -37.6263 -2.9281 -88.3768
rradius 38.6712
rwrist -16.7571
rhand -18.6481 -34.6882
rfingers 7.12502
rthumb 7.64483 -64.53
lclavicle 5.41688e-015 -1.96797e-014
lhumerus -54.2115 32.1374 53.968
lradius 13.0259
lwrist -32.9411
lhand -16.5105 -15.5708
lfingers 7.12502
lthumb 9.70767 14.1854
rfemur -33.6738 -4.15026 15.7763
rtibia 75.0833
rfoot 0.26056 3.10246
rtoes -4.69651
lfemur -33.6502 1.27908 -28.1098
ltibia 35.4335
lfoot -15.9407 0.154319
ltoes -17.1672
378
root 0.482038 16.1438 41.6641 16.361 -1.78637 3.09118
lowerback -15.836 -0.472893 -4.28775
upperback -5.62381 0.0784304 -1.40561
thorax 2.89017 0.0562421 0.960867
lowerneck -4.62882 -0.871455 -1.28959
upperneck 9.3343 -1.11769 0.549481
head 3.87011 -0.574982 0.355602
rclavicle 2.5345e-015 -1.41137e-014
rhumerus -37.9988 -4.22133 -87.6803
rradius 36.3866
rwrist -16.0805
rhand -18.6882 -34.8063
rfingers 7.12502
rthumb 7.6061 -64.6495
lclavicle 2.5345e-015 -1.41137e-014
lhumerus -50.7318 30.1858 58.571
lradius 13.7417
lwrist -29.2239
lhand -16.9421 -15.7363
lfingers 7.12502
lthumb 9.29126 14.0389
rfemur -34.4445 -6.0209 15.981
rtibia 74.6258
rfoot -1.93633 3.23551
rtoes -4.49957
lfemur -32.4025 0.708051 -28.2223
ltibia 35.1524
lfoot -16.7525 -0.384693
ltoes -16.1535
379
root 0.441743 16.1414 41.8455 16.3244 -2.06132 2.40219
lowerback -15.6042 -0.364634 -4.33069
upperback -5.6728 0.195559 -0.996315
thorax 2.70715 0.121918 1.43574
lowerneck -4.86237 -0.929461 -1.37171
upperneck 9.76015 -1.17254 0.410108
head 4.06814 -0.612121 0.320048
rclavicle 1.56978e-014 -3.37934e-015
rhumerus -38.561 -5.42187 -86.9286
rradius 34.0995
rwrist -15.0878
rhand -18.6611 -35.0055
rfingers 7.12502
rthumb 7.63228 -64.8478
lclavicle 1.56978e-014 -3.37934e-015
lhumerus -47.7996 27.5476 62.9825
lradius 14.9204
lwrist -25.0019
lhand -16.9345 -15.5247
lfingers 7.12502
lthumb 9.29858 14.2502
rfemur -36.1219 -4.99353 17.3197
rtibia 74.1215
rfoot -3.2219 2.12839
rtoes -6.75053
lfemur -31.7651 1.29097 -27.3239
ltibia 35.1244
lfoot -17.2135 -0.271802
ltoes -16.1368
380
root 0.416679 16.1335 42.0492 16.4475 -2.14297 2.23247
lowerback -15.9157 -0.439706 -4.67107
upperback -5.73793 0.154154 -0.775033
thorax 2.80173 0.104796 1.85374
lowerneck -4.72678 -0.913617 -1.31737
upperneck 10.1111 -1.14737 0.301835
head 4.16511 -0.603884 0.275675
rclavicle 1.73937e-016 3.37934e-015
rhumerus -39.2701 -6.71546 -86.1102
rradius 31.6715
rwrist -13.7843
rhand -18.5837 -35.0954
rfingers 7.12502
rthumb 7.707 -64.935
lclavicle 1.73937e-016 3.37934e-015
lhumerus -45.5484 24.5945 66.8584
lradius 16.4972
lwrist -20.4071
lhand -16.8987 -15.0942
lfingers 7.12502
lthumb 9.33312 14.6792
rfemur -37.7296 -4.5274 17.9513
rtibia 73.6826
rfoot -4.81396 1.2467
rtoes -9.07138
lfemur -31.1681 1.73176 -27.109
ltibia 35.1142
lfoot -17.7785 -0.353432
ltoes -16.3416
381
root 0.451024 16.128 42.2017 16.0087 -1.16627 2.2875
lowerback -14.7462 -0.65857 -4.21673
upperback -5.92696 -0.268771 -0.795806
thorax 2.00855 -0.0910336 1.50399
lowerneck -4.2694 -0.891884 -1.28805
upperneck 10.4376 -1.13193 0.343909
head 4.19096 -0.594651 0.286606
rclavicle 2.23633e-015 -2.38542e-015
rhumerus -40.0796 -8.16387 -85.1372
rradius 29.0206
rwrist -12.4324
rhand -18.5801 -34.8696
rfingers 7.12502
rthumb 7.71042 -64.709
lclavicle 2.23633e-015 -2.38542e-015
lhumerus -43.8241 21.7805 69.9595
lradius 18.0556
lwrist -16.1626
lhand -17.2231 -15.154
lfingers 7.12502
lthumb 9.02002 14.6332
rfemur -38.5092 -5.60248 18.2425
rtibia 72.9747
rfoot -6.56639 0.888596
rtoes -10.1024
lfemur -29.9643 1.42918 -27.1714
ltibia 35.1591
lfoot -18.5401 -0.502297
ltoes -17.1882
382
root 0.406836 16.0792 42.3407 15.9516 -2.32493 3.58858
lowerback -13.9752 -0.631551 -6.46499
upperback -6.28022 -0.000197443 -0.966
thorax 1.18739 0.0997008 2.63268
lowerneck -3.73138 -0.921549 -1.39545
upperneck 10.621 -1.18017 0.427668
head 4.1518 -0.620111 0.332967
rclavicle -6.21202e-016 1.37161e-014
rhumerus -40.9842 -9.88852 -83.8018
rradius 26.4885
rwrist -10.7258
rhand -18.2389 -34.9344
rfingers 7.12502
rthumb 8.03973 -64.7614
lclavicle -6.21202e-016 1.37161e-014
lhumerus -42.3178 19.0127 72.6867
lradius 19.4842
lwrist -12.3095
lhand -17.7692 -15.4953
lfingers 7.12502
lthumb 8.49303 14.3139
rfemur -40.7409 -4.41825 17.1384
rtibia 72.4585
rfoot -7.4698 -0.128304
rtoes -12.459
lfemur -29.4367 2.08426 -28.6507
ltibia 34.9976
lfoot -18.9082 -0.0694425
ltoes -17.9053
